<svg width="96" height="192" viewBox="0 0 96 192" fill="none" xmlns="http://www.w3.org/2000/svg">
<g clip-path="url(#clip0_3852_2098)">
<path d="M10.8929 -0.652637L-0.65332 10.8936L-0.00828152 11.5386L11.5379 -0.00759819L10.8929 -0.652637Z" fill="#281F6B"/>
<path d="M35.6753 -0.653815L-0.648438 35.6699L-0.00339809 36.315L36.3203 -0.00877577L35.6753 -0.653815Z" fill="#281F6B"/>
<path d="M-0.000116289 61.0966L-0.638672 60.4467L-0.319394 60.1274L60.4574 -0.649414L61.096 -0.0108585L60.7767 0.319822L-0.000116289 61.0966Z" fill="#281F6B"/>
<path d="M-0.000116229 85.8635L-0.638672 85.2249L-0.319394 84.8942L85.2243 -0.649414L85.8742 -0.0108584L85.5549 0.319822L-0.000116229 85.8635Z" fill="#281F6B"/>
<path d="M-0.011835 110.652L-0.650391 110.002L-0.331113 109.683L110.002 -0.650391L110.641 -0.000432253L110.321 0.318846L-0.011835 110.652Z" fill="#281F6B"/>
<path d="M48.0627 112.135L35.0293 99.1014L35.3486 98.7822L128.179 5.95215L128.829 6.5907L128.498 6.92139L36.3178 99.1014L48.0627 110.846L128.179 30.7304L128.829 31.3689L128.498 31.6882L48.0627 112.135Z" fill="#281F6B"/>
<path d="M97.5734 112.146L84.5742 99.1013L128.178 55.4971L128.828 56.147L85.8627 99.1013L97.5734 110.858L128.144 80.2753L128.794 80.9253L97.5734 112.146Z" fill="#281F6B"/>
<path d="M97.6191 161.68L84.7681 148.841V132.318L72.8408 120.391L60.9135 132.318V148.841L48.0626 161.68L35.2231 148.841V132.318L23.2958 120.391L11.3571 132.318V148.841L-0.000116289 160.198L-0.638672 159.548L10.4448 148.464V131.942L23.2958 119.102L36.1353 131.942V148.464L48.0626 160.392L60.0013 148.464V131.942L72.8408 119.102L85.6804 131.942V148.464L97.6191 160.392L109.546 148.464V131.942L128.179 113.31L128.828 113.948L110.459 132.318V148.841L97.6191 161.68Z" fill="#281F6B"/>
<path d="M36.1348 226.083H35.2226V181.875L23.2953 169.936L11.3566 181.875V226.083H10.4443V181.498L23.2953 168.647L36.1348 181.498V226.083Z" fill="#281F6B"/>
<path d="M85.68 226.083H84.7678V181.875L72.8405 169.936L60.9132 181.875V226.083H60.001V181.498L72.8405 168.647L85.68 181.498V226.083Z" fill="#281F6B"/>
</g>
<defs>
<clipPath id="clip0_3852_2098">
<rect width="96" height="192" fill="white"/>
</clipPath>
</defs>
</svg>
