<svg width="10" height="8" viewBox="0 0 10 8" fill="none" xmlns="http://www.w3.org/2000/svg">
<path d="M0 3.37731C0.976253 2.74406 1.87335 2.48021 2.69129 2.48021C4.40633 2.48021 5.5409 3.35092 7.25594 3.35092C8.07388 3.35092 8.99736 3.11346 10 2.45383V0C8.99736 0.659631 8.07388 0.897098 7.25594 0.897098C5.5409 0.897098 4.40633 0.0263858 2.69129 0.0263858C1.87335 0.0263858 0.976253 0.290238 0 0.923483V3.37731ZM0 7.30871C0.976253 6.67546 1.87335 6.41161 2.69129 6.41161C4.40633 6.41161 5.5409 7.28232 7.25594 7.28232C8.07388 7.28232 8.99736 7.04486 10 6.38522V3.9314C8.99736 4.59103 8.07388 4.8285 7.25594 4.8285C5.5409 4.8285 4.40633 3.95778 2.69129 3.95778C1.87335 3.95778 0.976253 4.22164 0 4.85488V7.30871Z" fill="#16113B"/>
</svg>
