<svg width="200" height="55" viewBox="0 0 200 55" fill="none" xmlns="http://www.w3.org/2000/svg">
<path d="M95.7173 12.7758C96.6809 12.3476 98.1798 12.0264 99.6787 12.0264C102.677 12.0264 104.711 13.7394 104.711 16.6302C104.711 19.7351 102.784 21.5553 99.6787 21.5553C99.0363 21.5553 98.501 21.4482 98.2869 21.3411V24.9814H95.8244V12.7758H95.7173ZM98.1798 19.1998C98.501 19.3069 98.9293 19.4139 99.4646 19.4139C101.071 19.4139 102.248 18.5574 102.248 16.7373C102.248 15.1313 101.178 14.2748 99.6787 14.2748C99.1434 14.2748 98.6081 14.3818 98.1798 14.4889V19.1998V19.1998Z" fill="#281F6B"/>
<path d="M109.101 21.3405H106.745V12.9893C107.709 12.454 108.994 12.1328 110.385 12.1328C111.135 12.1328 111.563 12.2399 112.313 12.3469V14.7024C111.67 14.4883 111.028 14.3812 110.492 14.3812C110.064 14.3812 109.636 14.4883 109.208 14.5953V21.3405H109.101Z" fill="#281F6B"/>
<path d="M117.987 12.0264C120.664 12.0264 122.698 13.9536 122.698 16.7373C122.698 19.521 120.664 21.4482 117.987 21.4482C115.311 21.4482 113.276 19.521 113.276 16.7373C113.276 13.9536 115.204 12.0264 117.987 12.0264ZM117.987 14.1677C116.702 14.1677 115.739 15.1313 115.739 16.8443C115.739 18.5574 116.702 19.521 117.987 19.521C119.272 19.521 120.236 18.5574 120.236 16.8443C120.236 15.1313 119.272 14.1677 117.987 14.1677Z" fill="#281F6B"/>
<path d="M126.66 21.3418L123.126 12.2412H125.803L128.159 18.8793L130.514 12.2412H133.084L129.657 21.3418H126.66Z" fill="#281F6B"/>
<path d="M134.154 9.45694C134.154 8.60041 134.797 7.95801 135.653 7.95801C136.403 7.95801 137.152 8.60041 137.152 9.45694C137.152 10.2064 136.51 10.8488 135.653 10.8488C134.904 10.9559 134.154 10.3135 134.154 9.45694ZM136.938 21.3413H134.475V12.2407H136.938V21.3413Z" fill="#281F6B"/>
<path d="M139.507 12.7758C140.792 12.2405 142.505 12.0264 143.79 12.0264C146.146 12.0264 147.645 12.8829 147.645 15.5596V21.2341H145.182V15.6666C145.182 14.596 144.647 14.1677 143.576 14.1677C142.934 14.1677 142.398 14.2748 141.863 14.3818V21.2341H139.4V12.7758H139.507Z" fill="#281F6B"/>
<path d="M156.959 15.0248C156.21 14.3824 155.46 14.1683 154.604 14.1683C153.105 14.1683 152.034 15.1319 152.034 16.7379C152.034 18.2368 153.105 19.3075 154.711 19.3075C155.567 19.3075 156.317 18.9863 156.959 18.451V20.6994C156.102 21.2347 155.246 21.3418 154.282 21.3418C151.392 21.3418 149.464 19.5216 149.464 16.6308C149.464 13.74 151.499 11.9199 154.282 11.9199C155.353 11.9199 156.102 12.1341 156.852 12.5623V15.0248H156.959Z" fill="#281F6B"/>
<path d="M158.886 9.45694C158.886 8.60041 159.529 7.95801 160.385 7.95801C161.135 7.95801 161.884 8.60041 161.884 9.45694C161.884 10.2064 161.242 10.8488 160.385 10.8488C159.636 10.9559 158.886 10.3135 158.886 9.45694ZM161.67 21.3413H159.207V12.2407H161.67V21.3413Z" fill="#281F6B"/>
<path d="M165.953 17.3803C166.167 18.6651 167.345 19.3075 168.629 19.3075C169.807 19.3075 170.771 18.9863 171.627 18.451V20.4852C170.771 21.1276 169.593 21.3418 168.308 21.3418C165.31 21.3418 163.49 19.5216 163.49 16.7379C163.49 13.74 165.417 11.9199 167.88 11.9199C170.664 11.9199 171.841 13.74 171.841 16.2026V17.3803H165.953V17.3803ZM169.593 15.9884C169.593 14.9178 169.058 14.0612 167.88 14.0612C166.809 14.0612 166.167 14.8107 165.953 15.9884H169.593Z" fill="#281F6B"/>
<path d="M95.0748 29.585H103.854V31.8334L97.8586 39.4351H103.961V41.6834H94.9678V39.4351L100.856 31.8334H95.0748V29.585V29.585Z" fill="#281F6B"/>
<path d="M113.811 41.3631C112.741 41.6843 111.242 41.7913 110.064 41.7913C107.494 41.7913 105.781 40.9348 105.781 38.2581V32.4766H108.244V38.044C108.244 39.2217 108.779 39.7571 110.064 39.7571C110.385 39.7571 110.92 39.7571 111.349 39.65V32.4766H113.811V41.3631Z" fill="#281F6B"/>
<path d="M116.06 29.7997C116.06 28.9432 116.702 28.3008 117.559 28.3008C118.308 28.3008 119.057 28.9432 119.057 29.7997C119.057 30.5492 118.415 31.1916 117.559 31.1916C116.702 31.2986 116.06 30.6562 116.06 29.7997ZM118.736 41.6841H116.274V32.5834H118.736V41.6841Z" fill="#281F6B"/>
<path d="M129.55 41.3624C128.48 41.6836 127.088 41.7907 125.803 41.7907C122.698 41.7907 120.557 40.0776 120.557 37.0798C120.557 34.189 122.484 32.3689 125.268 32.3689C125.91 32.3689 126.552 32.4759 126.981 32.6901V27.8721H129.443V41.3624H129.55ZM127.195 34.8314C126.767 34.6172 126.338 34.5102 125.696 34.5102C124.197 34.5102 123.233 35.4738 123.233 37.0798C123.233 38.7928 124.304 39.7564 126.017 39.7564C126.338 39.7564 126.767 39.7564 127.195 39.6494V34.8314V34.8314Z" fill="#281F6B"/>
<path d="M146.36 29.585H148.929V41.6834H146.36V36.7584H140.899V41.6834H138.33V29.585H140.899V34.51H146.36V29.585Z" fill="#281F6B"/>
<path d="M155.46 32.3691C158.137 32.3691 160.171 34.2963 160.171 37.0801C160.171 39.8638 158.137 41.791 155.46 41.791C152.784 41.791 150.75 39.8638 150.75 37.0801C150.75 34.2963 152.784 32.3691 155.46 32.3691ZM155.46 34.5105C154.176 34.5105 153.212 35.4741 153.212 37.1871C153.212 38.9002 154.176 39.8638 155.46 39.8638C156.745 39.8638 157.709 38.9002 157.709 37.1871C157.709 35.4741 156.745 34.5105 155.46 34.5105Z" fill="#281F6B"/>
<path d="M164.561 41.6843H162.099V27.7656H164.561V41.6843Z" fill="#281F6B"/>
<path d="M169.486 41.6843H167.023V27.7656H169.486V41.6843Z" fill="#281F6B"/>
<path d="M176.445 35.6878C176.445 34.8313 175.696 34.403 174.839 34.403C173.769 34.403 172.912 34.7242 172.27 35.1525V33.0112C173.126 32.5829 174.197 32.2617 175.267 32.2617C177.302 32.2617 178.908 33.1182 178.908 35.4737V41.3624C178.051 41.5765 176.659 41.6836 175.482 41.6836C173.233 41.6836 171.413 41.0412 171.413 38.8998C171.413 36.9726 172.912 36.1161 175.482 36.1161H176.445V35.6878V35.6878ZM176.445 37.8292H175.589C174.411 37.8292 173.769 38.1504 173.769 38.8998C173.769 39.6493 174.411 39.9705 175.375 39.9705C175.589 39.9705 176.017 39.9705 176.338 39.8634V37.8292H176.445Z" fill="#281F6B"/>
<path d="M181.049 33.1186C182.334 32.5833 184.047 32.3691 185.332 32.3691C187.688 32.3691 189.186 33.2257 189.186 35.9023V41.5768H186.724V36.0094C186.724 34.9387 186.189 34.5105 185.118 34.5105C184.476 34.5105 183.94 34.6175 183.405 34.7246V41.5768H180.942V33.1186H181.049Z" fill="#281F6B"/>
<path d="M200 41.3624C198.929 41.6836 197.537 41.7907 196.253 41.7907C193.148 41.7907 191.006 40.0776 191.006 37.0798C191.006 34.189 192.934 32.3689 195.717 32.3689C196.36 32.3689 197.002 32.4759 197.43 32.6901V27.8721H199.893V41.3624H200ZM197.537 34.8314C197.109 34.6172 196.681 34.5102 196.038 34.5102C194.54 34.5102 193.576 35.4738 193.576 37.0798C193.576 38.7928 194.647 39.7564 196.36 39.7564C196.681 39.7564 197.109 39.7564 197.537 39.6494V34.8314V34.8314Z" fill="#281F6B"/>
<path d="M131.584 37.0795V39.9703L136.188 36.7583V33.9746L131.584 37.0795Z" fill="#281F6B"/>
<path d="M70.6632 54.1034H87.2584L84.2606 51.5338L86.9372 49.0713H70.7702L70.342 53.6751C70.2349 53.8893 70.449 54.1034 70.6632 54.1034Z" fill="#EFCC36"/>
<path d="M14.882 51.8547H44.004H73.126V49.071H70.9847C70.7706 49.071 70.6635 48.7498 70.7706 48.6427L72.5907 47.3579C72.8048 47.2509 72.6978 46.9297 72.3766 46.9297H44.004H15.5244C15.3102 46.9297 15.2032 47.2509 15.3102 47.3579L17.1304 48.6427C17.3445 48.7498 17.2374 49.071 16.9162 49.071H14.7749V51.8547H14.882Z" fill="#EFCC36"/>
<path d="M0.749023 54.1034H17.3443C17.5584 54.1034 17.7726 53.8893 17.7726 53.6751L17.3443 49.0713H1.07022L3.74688 51.5338L0.749023 54.1034Z" fill="#EFCC36"/>
<path d="M44.0038 45.5379C51.3913 45.5379 58.4577 41.3623 58.4577 30.4415V12.2402H29.5498V30.4415C29.5498 41.3623 36.6162 45.5379 44.0038 45.5379Z" fill="#EFCC36"/>
<path d="M54.4966 6.9936C54.4966 7.42187 54.7107 7.85013 55.139 7.85013C55.5673 7.85013 55.7814 7.42187 55.7814 6.9936C55.7814 6.56534 55.5673 6.24414 55.139 6.24414C54.7107 6.24414 54.4966 6.6724 54.4966 6.9936Z" fill="#EFCC36"/>
<path d="M40.2567 7.85013C40.6849 7.85013 40.8991 7.42187 40.8991 6.9936C40.8991 6.56534 40.6849 6.24414 40.2567 6.24414C39.8284 6.24414 39.6143 6.56534 39.6143 6.9936C39.6143 7.42187 39.8284 7.85013 40.2567 7.85013Z" fill="#EFCC36"/>
<path d="M47.1089 6.99364C47.1089 7.42191 47.323 7.85017 47.7513 7.85017C48.1795 7.85017 48.3937 7.42191 48.3937 6.99364C48.3937 6.56538 48.1795 6.24418 47.7513 6.24418C47.323 6.13711 47.1089 6.56538 47.1089 6.99364Z" fill="#EFCC36"/>
<path d="M59.5288 3.03222L57.9228 3.78168C57.7086 4.10288 57.7086 4.63821 57.9228 5.28061L57.3874 4.74528C57.0662 4.53114 56.8521 4.31701 56.638 4.31701C56.4238 4.31701 56.2097 4.42408 56.1026 4.74528L55.8885 5.28061L56.8521 7.10074L55.2461 9.02793L53.533 7.10074L54.9249 5.17354L54.8178 4.53114C54.7108 4.20995 54.4966 3.99581 54.2825 3.99581C53.9613 3.99581 53.6401 4.10288 52.7836 4.53114C53.533 3.78168 53.6401 3.35341 53.6401 2.60395L52.2482 0.676758H51.0705L49.6787 2.60395C49.6787 3.24635 49.7857 3.78168 50.4281 4.53114C49.4645 4.10288 49.1433 3.88875 48.8221 3.88875C48.608 3.88875 48.3939 4.10288 48.2868 4.42408L48.1797 5.06648L49.4645 6.99367L47.5373 9.02793L45.7172 6.8866L47.2161 5.06648L47.1091 4.63821C47.002 4.20995 46.8949 3.88875 46.4667 3.88875C46.1455 3.88875 45.7172 3.99581 44.9677 4.42408C45.7172 3.67461 45.7172 3.13928 45.7172 2.49689L44.3253 0.676758H43.8971H43.5759L42.184 2.49689C42.184 3.13928 42.2911 3.67461 42.9335 4.42408C42.184 3.99581 41.7558 3.88875 41.4346 3.88875C41.0063 3.88875 40.7922 4.20995 40.7922 4.63821L40.6851 5.06648L42.184 6.8866L40.3639 9.02793L38.4367 6.99367L39.7215 5.06648L39.6144 4.42408C39.5074 4.10288 39.2932 3.88875 39.0791 3.88875C38.7579 3.88875 38.4367 3.99581 37.4731 4.53114C38.1155 3.78168 38.2226 3.35341 38.2226 2.60395L36.8307 0.676758H35.8671L34.4752 2.60395C34.4752 3.24635 34.5823 3.78168 35.3318 4.53114C34.4752 4.10288 34.154 3.99581 33.8328 3.99581C33.5117 3.99581 33.2975 4.20995 33.2975 4.53114L33.1905 5.17354L34.5823 7.10074L32.8693 9.13499L31.2633 7.2078L32.2269 5.38767L32.0127 4.85234C31.7986 4.53114 31.6915 4.42408 31.3703 4.42408C31.1562 4.42408 30.9421 4.53114 30.6209 4.85234L30.0855 5.38767C30.2997 4.74528 30.2997 4.20995 30.0855 3.88875L28.4795 3.13928L28.0513 3.35342L30.5138 10.8481H44.0041H57.4945L59.957 3.35342L59.5288 3.03222Z" fill="#EFCC36"/>
<path d="M32.869 7.95658C33.2972 7.95658 33.5114 7.52832 33.5114 7.10005C33.5114 6.67179 33.2972 6.35059 32.869 6.35059C32.4407 6.35059 32.2266 6.67179 32.2266 7.10005C32.2266 7.52832 32.4407 7.95658 32.869 7.95658Z" fill="#EFCC36"/>
<path d="M29.9786 42.6459C29.5503 42.6459 29.122 42.8601 28.9079 43.0742L28.2655 43.5025H27.3019L22.1627 38.4703C23.3405 38.4703 24.5182 37.935 25.3747 37.2926C21.1991 35.4725 20.8779 31.0828 17.5589 29.2626C16.5953 29.4768 15.2034 30.2262 14.7752 30.9757C15.0964 31.1898 15.2034 31.404 15.2034 31.8322C15.2034 32.4746 14.6681 32.9029 13.9186 32.7958C13.8116 32.4746 13.7045 32.0464 13.7045 31.7252C13.7045 30.8686 14.1328 30.3333 14.7752 29.905C16.0599 28.9414 18.3083 28.4061 19.9143 26.2648C18.2013 25.4082 17.3447 24.4447 16.9165 22.8387C16.2741 23.1599 15.6317 23.374 14.6681 23.374C13.8116 23.374 12.955 23.1599 12.0985 22.7316C11.8844 24.3376 11.349 25.9436 10.3854 27.5496C8.67237 30.1192 6.53105 31.1898 4.81798 31.1898C2.89079 31.1898 1.60599 30.3333 1.60599 29.0485C1.60599 27.6566 2.67666 26.693 5.13918 25.9436C8.24411 24.8729 9.42184 24.0164 9.42184 22.3033C9.42184 21.6609 9.20771 21.0185 8.67237 20.5903C8.88651 20.2691 8.99357 19.8408 8.99357 19.5196C8.99357 18.9843 8.77944 18.2348 8.24411 17.6995L5.78158 15.344C5.46038 15.6652 4.92505 15.8793 4.38972 15.8793C3.42612 15.8793 2.56959 15.1299 2.56959 13.9521C1.606 14.2733 0.963599 15.1299 0.963599 16.2005C0.963599 16.8429 1.17773 17.4853 1.71306 17.9136L2.56959 18.7701V20.4832C2.78373 20.3761 3.10493 20.2691 3.31906 20.2691C3.96146 20.2691 4.38972 20.5903 4.92505 21.0185C5.46038 21.5539 5.99571 21.768 6.63811 21.768C6.95931 21.768 7.28051 21.6609 7.60171 21.5539C7.81584 21.768 7.92291 21.9821 7.92291 22.3033C7.92291 23.1599 6.53105 23.8023 4.49679 24.4447C1.606 25.3012 0 26.8001 0 28.9414C0 31.404 2.03426 32.7958 4.81798 32.7958C5.46038 32.7958 5.99572 32.7958 6.53105 32.5817L7.28051 36.2219H1.60599C1.92719 36.7573 2.03426 37.0785 2.03426 37.6138C2.03426 38.4703 1.2848 39.541 0.428267 40.2905L5.46038 47.7851H9.10064C9.95717 47.7851 10.3854 47.2498 10.5996 46.6074H10.9208L11.4561 45.7508C11.242 45.0014 10.2784 44.4661 9.31477 44.4661C8.77944 44.4661 8.24411 45.3226 7.92291 45.8579C6.31691 44.6802 5.24625 43.3954 5.24625 41.7894C5.24625 40.3975 6.10278 39.1127 8.02997 39.1127C8.99357 39.1127 10.0642 39.4339 11.242 40.3975L14.8822 36.9714L14.2398 33.6524C16.7023 34.0806 18.5225 35.0442 18.5225 36.7573C18.5225 37.6138 18.0942 38.3633 17.2377 38.8986L25.9101 45.6438H32.1199L32.227 44.0378L31.1563 43.0742C30.621 42.8601 30.2998 42.6459 29.9786 42.6459Z" fill="#D32939"/>
<path d="M86.2955 37.7212C86.2955 37.1859 86.4025 36.8647 86.7237 36.3294H81.0492L81.7987 32.6891C82.334 32.7962 82.8693 32.9032 83.5117 32.9032C86.2955 32.9032 88.3297 31.5114 88.3297 29.0489C88.3297 26.9075 86.7237 25.5157 83.8329 24.5521C81.7987 23.9097 80.4068 23.1602 80.4068 22.4107C80.4068 22.0895 80.5139 21.8754 80.728 21.6613C81.0492 21.7683 81.3704 21.8754 81.6916 21.8754C82.334 21.8754 82.8693 21.6613 83.4047 21.1259C83.94 20.6977 84.3683 20.3765 85.0107 20.3765C85.2248 20.3765 85.546 20.4835 85.7601 20.5906V18.8776L86.6167 18.021C87.0449 17.5928 87.3661 16.9504 87.3661 16.308C87.3661 15.2373 86.6167 14.2737 85.7601 14.0596C85.7601 15.1302 84.9036 15.9868 83.94 15.9868C83.4047 15.9868 82.8693 15.7726 82.5481 15.4514L80.0856 17.8069C79.5503 18.3422 79.3362 18.9846 79.3362 19.627C79.3362 19.9482 79.4432 20.3765 79.6574 20.6977C79.2291 21.1259 78.9079 21.7683 78.9079 22.4107C78.9079 24.1238 80.1927 24.9803 83.1905 26.051C85.6531 26.9075 86.7237 27.7641 86.7237 29.1559C86.7237 30.4407 85.4389 31.2972 83.5117 31.2972C81.6916 31.2972 79.5503 30.2266 77.9443 27.4429C76.9807 25.8369 76.4454 24.2309 76.2312 22.6249C75.4818 23.0531 74.5182 23.2673 73.6616 23.2673C72.698 23.2673 72.0556 23.0531 71.4132 22.7319C70.985 24.3379 70.1284 25.3015 68.4154 26.1581C69.9143 28.2994 72.2698 28.8347 73.5546 29.7983C74.0899 30.2266 74.6252 30.869 74.6252 31.6184C74.6252 32.0467 74.5182 32.3679 74.4111 32.6891C73.6616 32.6891 73.1263 32.2608 73.1263 31.7255C73.1263 31.4043 73.3404 31.0831 73.5546 30.869C73.0192 30.1195 71.7344 29.3701 70.7709 29.1559C67.4518 31.0831 67.1306 35.3658 62.955 37.1859C63.8115 37.8283 64.8822 38.2566 66.167 38.3636L61.0278 43.5028H60.0642L59.4218 43.0745C59.2077 42.8604 58.7794 42.6463 58.3512 42.6463C57.9229 42.6463 57.7088 42.8604 57.3876 43.0745L56.3169 44.0381L56.424 45.6441H62.6338L71.3062 38.899C70.4497 38.3636 70.0214 37.6142 70.0214 36.7576C70.0214 35.0446 71.8415 34.081 74.304 33.6527L73.6616 36.9718L77.3019 40.3979C78.4796 39.5414 79.5503 39.1131 80.5139 39.1131C82.4411 39.1131 83.2976 40.3979 83.2976 41.7897C83.2976 43.3957 82.1199 44.6805 80.621 45.8583C80.2998 45.2159 79.7644 44.4664 79.2291 44.4664C78.3726 44.4664 77.3019 45.0017 77.0878 45.7512L77.6231 46.6077H77.9443C78.1584 47.2501 78.5867 47.7855 79.4432 47.7855H83.0835L88.1156 40.2908C87.0449 39.6484 86.2955 38.5778 86.2955 37.7212Z" fill="#D32939"/>
<path d="M62.2052 24.7669C61.884 25.3022 61.7769 26.0517 61.6699 26.6941C61.5628 27.4435 61.2416 28.3001 60.4921 29.3707L60.0639 29.906L59.6356 29.5848C58.9932 29.5848 58.5649 29.906 58.3508 30.4414C58.2437 30.6555 58.2437 30.9767 58.2437 31.2979V31.6191C57.7084 31.8332 57.4943 32.1544 57.3872 32.5827C57.3872 32.6898 57.3872 32.7968 57.3872 33.011L57.7084 33.7604L57.8155 33.8675H58.5649C58.5649 34.0816 58.5649 34.2958 58.672 34.4028C58.7791 34.724 58.8861 34.9382 59.1003 35.0452L59.3144 35.1523C59.3144 35.1523 59.4215 35.2594 59.5285 35.2594C59.6356 35.3664 59.8497 35.3664 59.9568 35.3664C60.278 35.3664 60.8133 35.0452 61.1345 34.8311C61.2416 35.0452 61.4557 35.1523 61.6699 35.1523C61.884 35.1523 62.0981 35.0452 62.3123 34.9382L62.5264 34.724L62.7405 34.5099C62.9546 34.2958 63.0617 33.9746 63.0617 33.7604C63.0617 33.4392 62.7405 32.9039 62.3123 32.6898L62.4193 32.4756L63.3829 33.118C63.8112 32.1544 63.2758 31.2979 63.2758 30.5484C63.2758 29.799 63.9182 29.1566 65.096 28.193C65.8454 27.5506 66.2737 27.0153 66.702 26.1587C66.702 25.0881 66.4878 24.0174 65.9525 23.375C64.8818 24.4457 63.9182 24.8739 62.2052 24.7669Z" fill="#D32939"/>
<path d="M51.2845 32.1534C52.8905 32.1534 54.1753 31.2968 54.1753 29.905C54.1753 28.6202 53.3188 27.7636 51.4987 27.2283C50.2139 26.8 49.3573 26.4788 49.3573 25.8364C49.3573 25.7294 49.4644 25.5152 49.5715 25.4082C49.7856 25.5152 49.9997 25.5152 50.1068 25.5152C50.535 25.5152 50.8562 25.4082 51.1774 25.087C51.4986 24.7658 51.8198 24.6587 52.141 24.6587C52.3552 24.6587 52.4622 24.6587 52.5693 24.7658V23.6951L53.1046 23.1598C53.4258 22.8386 53.5329 22.5174 53.5329 22.0891C53.5329 21.4467 53.1046 20.9114 52.5693 20.6973C52.5693 21.2326 52.141 21.875 51.4987 21.875C51.1775 21.875 50.8562 21.7679 50.6421 21.5538L49.1432 23.0527C48.9291 23.2669 48.7149 23.5881 48.7149 24.1234C48.7149 24.3375 48.822 24.5517 48.9291 24.7658C48.6079 25.087 48.5008 25.5152 48.5008 25.8364C48.5008 26.8 49.2503 27.3354 51.0704 27.9778C52.5693 28.5131 53.1046 28.9414 53.1046 29.905C53.1046 30.6544 52.3552 31.1898 51.1774 31.1898C50.1068 31.1898 48.822 30.6544 47.8584 28.8343C47.1089 27.5495 46.8948 26.8 46.8948 26.0506C45.9312 26.4788 45.0747 26.4788 44.1111 26.1576C43.7899 26.9071 43.1475 27.6566 42.2909 28.0848C42.6121 28.8343 44.3252 29.7979 45.0747 30.1191C45.8241 30.4403 45.9312 30.9756 45.9312 31.4039C45.9312 31.618 45.8241 31.9392 45.7171 32.0463C45.1817 32.0463 44.9676 31.7251 44.9676 31.511C44.9676 31.2968 45.0747 31.0827 45.2888 30.9756C44.9676 30.5474 44.4323 30.3332 43.8969 30.1191C41.9697 31.1898 41.1132 33.7594 38.8648 34.83C39.5072 35.3653 40.1496 35.4724 40.792 35.5795L37.6871 38.6844H37.0447L36.6164 38.3632C36.5094 38.2561 36.2952 38.1491 36.0811 38.1491C35.867 38.1491 35.6528 38.2561 35.5458 38.3632L34.7963 39.0056L34.4751 39.9692H38.5436L43.7899 35.9007C43.2545 35.5795 43.0404 35.1512 43.0404 34.7229C43.0404 33.7593 44.2181 33.0099 45.61 32.6887L45.1817 34.7229L47.3231 36.7572C47.9655 36.2219 48.822 35.9007 49.4644 35.9007C50.428 35.9007 51.0704 36.5431 51.0704 37.5067C51.0704 38.6844 50.3209 39.7551 49.5715 40.2904C49.3573 39.7551 49.0361 39.4339 48.7149 39.4339C48.3937 39.4339 47.6443 39.7551 47.5372 40.2904L47.8584 40.8257H48.0725C48.1796 41.254 48.5008 41.5752 49.0361 41.5752H51.1774L54.1753 36.9713C53.64 36.5431 53.2117 36.0077 53.2117 35.2583C53.2117 34.9371 53.3188 34.7229 53.4258 34.4017H49.9997L50.428 32.1534C50.6421 32.1534 50.9633 32.1534 51.2845 32.1534Z" fill="#D32939"/>
<path d="M25.4818 21.233C25.4818 20.2694 26.3383 19.5199 26.3383 18.4492C26.3383 17.4856 26.0171 16.8432 25.0535 16.415C26.3383 16.415 27.409 15.5584 27.409 14.9161C25.4818 14.9161 24.5182 12.7747 22.0557 12.7747C20.2355 12.7747 20.0214 13.6313 18.8437 13.6313C17.8801 13.6313 17.8801 13.203 16.4882 13.203V12.8818C17.3447 12.7747 18.0942 12.6677 18.8437 13.203C19.2719 12.8818 19.379 12.5606 19.379 12.3465C19.379 11.8111 18.9507 11.4899 18.5225 11.3829C18.4154 10.8475 18.3083 10.5263 17.8801 10.4193L17.6659 11.2758C16.3811 11.2758 16.0599 11.8111 15.3105 11.8111C14.6681 11.8111 14.4539 11.3829 14.2398 10.7405C14.2398 10.4193 14.1327 10.0981 14.1327 9.77687C14.1327 9.6698 14.1327 9.56274 14.1327 9.45567C14.2398 7.42141 14.7751 6.77901 15.5246 6.77901C16.2741 6.77901 16.5953 7.31434 17.773 7.52848L17.8801 8.38501C18.2013 8.38501 18.5225 8.06381 18.7366 7.63554C19.7002 7.74261 20.1285 7.52848 20.1285 6.35075V5.28008L20.3426 4.95888V3.67409L18.4154 3.03169L17.9871 3.13876L17.6659 2.60342L15.3105 2.28223L14.7751 2.71049H11.4561C10.9208 2.71049 10.5996 2.92462 10.5996 3.24582C10.5996 3.56702 10.9208 3.99529 11.242 4.31649C8.88649 4.74475 8.13703 6.13661 8.13703 7.10021C8.13703 8.70621 8.56529 8.70621 8.56529 10.7405C8.56529 11.597 8.35116 12.4535 7.49463 13.3101L10.4925 16.3079C11.5631 17.3786 11.8844 18.2351 11.8844 18.9846C11.8844 19.627 11.5632 20.3764 10.9208 20.9118C11.8844 21.9824 13.1691 22.5178 14.4539 22.5178C15.5246 22.5178 16.3811 22.1966 17.2377 21.5542C17.4518 24.1238 18.6295 24.9803 20.5567 25.8368C20.6638 24.2308 21.1991 23.1602 22.0557 22.4107C22.9122 23.6955 23.7687 24.2308 24.9464 24.2308C26.2312 24.2308 26.8736 23.5884 26.9807 22.946C25.91 22.7319 25.4818 21.9824 25.4818 21.233ZM17.3447 3.99529C17.2377 4.10235 17.1306 4.20942 16.9165 4.20942C16.8094 4.42355 16.4882 4.74475 16.0599 4.74475C15.6317 4.74475 15.3105 4.53062 15.0963 4.20942C15.5246 3.88822 16.2741 3.78116 17.3447 3.99529Z" fill="#D32939"/>
<path d="M28.5865 7.7428V7.20747V7.1004C28.5865 6.67214 28.4795 6.24387 28.1583 6.1368C28.0512 6.02974 27.9441 6.02974 27.8371 6.02974H27.5159C27.5159 5.70854 27.4088 5.49441 27.1947 5.38734C27.0876 5.28027 26.8735 5.28027 26.6593 5.28027C26.124 5.28027 25.6957 5.49441 25.3745 6.02974C24.9463 6.02974 24.518 6.56507 24.518 7.4216C24.518 8.49226 25.9099 8.81346 25.4816 9.66999L23.7686 12.5608C25.2675 13.0961 25.6957 13.8456 26.9805 14.1668L27.9441 10.5265C28.1583 9.66999 29.336 9.56293 29.336 8.7064C29.336 8.59933 29.336 8.3852 29.2289 8.27813C29.2289 8.27813 29.2289 8.17106 29.1219 8.17106L28.5865 7.7428Z" fill="#D32939"/>
<path d="M40.6855 26.6934C39.936 27.3358 38.8654 27.5499 38.1159 27.1216L36.9382 29.5841L36.617 29.263C36.2958 29.263 36.0816 29.37 35.9746 29.5841C35.8675 29.6912 35.7604 29.9053 35.7604 30.1195V30.2265V30.3336C35.4392 30.4407 35.3322 30.5477 35.2251 30.8689C35.2251 30.976 35.2251 30.976 35.2251 31.0831L35.3322 31.5113V31.6184L35.7604 31.7255C35.6534 31.9396 35.6534 32.1537 35.8675 32.3679L36.2958 32.7961C36.617 32.9032 36.9382 32.7961 37.0452 32.582C37.1523 32.7961 37.2594 32.7961 37.4735 32.7961L38.0088 32.582H38.1159C38.223 32.4749 38.223 32.3679 38.223 32.2608C38.223 32.0467 38.0088 31.8325 37.9018 31.7255L38.0088 31.6184L38.33 31.8325C38.6512 31.4043 38.33 30.7619 38.6512 30.5477L41.3279 28.2994C41.0067 27.4428 40.7926 27.0146 40.6855 26.6934Z" fill="#D32939"/>
<path d="M35.3315 19.5196L35.2245 19.6267L35.1174 19.7337C35.1174 19.8408 35.1174 19.9479 35.2245 20.0549C35.3315 20.162 35.4386 20.2691 35.5457 20.2691C35.7598 20.3761 36.081 20.3761 36.2951 20.4832C36.4022 20.4832 36.5093 20.5903 36.5093 20.6973L37.687 22.3033C37.7941 21.4468 38.4365 20.6973 38.9718 20.2691L37.687 19.8408C37.2587 19.7337 37.2587 19.4125 37.2587 19.0913C37.3658 18.8772 37.4729 18.4489 37.2587 18.1277C37.1517 17.9136 36.9375 17.6995 36.7234 17.6995C36.6163 17.6995 36.5093 17.6995 36.4022 17.6995C36.2951 17.5924 36.081 17.4854 35.8669 17.4854C35.7598 17.4854 35.5457 17.4853 35.4386 17.5924C35.3315 17.6995 35.2245 17.8065 35.2245 17.8065C35.1174 17.9136 35.1174 18.0207 35.2245 18.1277L35.1174 18.3419V18.4489C35.0103 18.6631 35.0103 18.8772 35.1174 19.0913L35.3315 19.5196Z" fill="#D32939"/>
<path d="M30.5142 32.6898C30.4072 32.2615 30.193 31.9403 29.6577 31.7262V31.405C29.6577 31.0838 29.6577 30.7626 29.5506 30.5484C29.3365 30.0131 28.8012 29.799 28.2658 29.6919L27.7305 30.0131L27.5164 29.3707C26.7669 28.3001 26.5528 27.4435 26.3386 26.6941C26.2316 25.9446 26.0174 25.3022 25.8033 24.7669C24.0902 24.8739 23.1266 24.5527 22.163 23.375C21.6277 24.0174 21.4136 25.0881 21.4136 26.1587C21.8418 27.0153 22.2701 27.5506 23.0196 28.193C24.1973 29.2636 24.8397 29.799 24.8397 30.5484C24.8397 31.2979 24.3044 32.1544 24.7326 33.118L25.6962 32.4756L25.8033 32.6898C25.375 33.011 25.0538 33.4392 25.0538 33.7604C25.0538 34.0816 25.1609 34.2958 25.375 34.5099L25.5892 34.724L25.8033 34.9382C26.0174 35.1523 26.2316 35.1523 26.4457 35.1523C26.6598 35.1523 26.874 35.0452 26.981 34.8311C27.3022 35.0452 27.8376 35.3664 28.1588 35.3664C28.2658 35.3664 28.48 35.3664 28.587 35.2594C28.6941 35.2594 28.6941 35.1523 28.8012 35.1523L29.0153 35.0452C29.2294 34.9382 29.3365 34.724 29.4436 34.4028C29.4436 34.1887 29.5506 34.0816 29.5506 33.8675H30.3001L30.4071 33.7604L30.7283 33.011C30.6213 32.9039 30.6213 32.7968 30.5142 32.6898Z" fill="#D32939"/>
<path d="M49.4644 20.4832C49.0362 20.0549 48.822 19.6267 48.822 18.8772C48.822 18.1277 49.1432 17.4853 49.1432 16.7359C49.1432 15.9864 48.715 15.344 47.216 15.1299C47.4302 14.9157 47.6443 14.7016 47.6443 14.4875C47.6443 14.2733 47.4302 14.1663 47.109 14.1663H45.0747L44.7535 13.9521L43.3617 14.0592L43.1475 14.3804L42.9334 14.2733L41.7557 14.5945V15.344L41.8627 15.5581V16.2005C41.8627 16.8429 42.1839 17.0571 42.7193 16.95C42.8263 17.1641 43.0405 17.3783 43.2546 17.3783L43.3617 16.8429C43.7899 16.7359 44.4323 16.4147 44.7535 16.4147C45.2888 16.4147 45.6101 16.7359 45.6101 18.1277V18.2348C45.6101 18.4489 45.6101 18.6631 45.503 18.8772C45.3959 19.1984 45.1818 19.4125 44.9677 19.4125C44.3253 19.4125 44.2182 19.0913 43.5758 19.0913L43.4687 18.556C43.2546 18.6631 43.0405 18.8772 43.0405 19.1984C42.7193 19.1984 42.5051 19.4125 42.5051 19.7337C42.5051 19.9479 42.6122 20.162 42.8263 20.3761C43.2546 20.0549 44.0041 20.0549 44.6465 20.2691V20.6973C43.7899 20.5903 43.4687 20.8044 42.8263 20.8044C42.1839 20.8044 41.8627 20.4832 40.7921 20.4832C39.4002 20.4832 38.2225 21.4468 38.2225 22.6245C38.2225 23.5881 38.6507 23.8022 38.6507 24.98C38.6507 25.5153 38.2225 26.0506 37.5801 26.0506C37.7942 26.586 38.3295 26.9072 38.8649 26.9072C39.7214 26.9072 40.3638 26.2648 40.5779 25.8365C41.1133 26.3718 41.4345 27.0142 41.5415 27.7637C42.7193 27.2284 43.3617 26.586 43.5758 25.4082C44.0041 25.8365 44.7535 25.9436 45.1818 25.9436C45.8242 25.9436 46.6807 25.6224 47.3231 25.087C47.109 24.98 46.6807 24.6588 46.6807 24.0164C46.6807 23.5881 46.8948 23.0528 47.5372 22.3033L49.4644 20.4832ZM44.3253 15.344C44.0041 15.344 43.897 15.2369 43.7899 15.0228C43.6829 15.0228 43.5758 14.9157 43.5758 14.9157C44.2182 14.8087 44.6465 14.8087 44.9677 15.0228C44.8606 15.1299 44.6465 15.344 44.3253 15.344Z" fill="#D32939"/>
<path d="M80.4065 13.3101C79.55 12.4535 79.3359 11.7041 79.3359 10.7405C79.3359 8.81327 79.7641 8.81327 79.7641 7.10021C79.7641 6.02955 79.0147 4.74475 76.6592 4.31649C77.0875 3.99529 77.3016 3.56702 77.3016 3.24582C77.3016 2.92462 77.0875 2.71049 76.4451 2.71049H73.126L72.5907 2.28223L70.2352 2.60342L69.914 3.13876L69.4858 3.03169L67.5586 3.67409V4.95888L67.7727 5.28008V6.35075C67.7727 7.42141 68.201 7.74261 69.1646 7.63554C69.3787 8.06381 69.6999 8.38501 70.0211 8.38501L70.1282 7.52848C71.3059 7.20728 71.6271 6.77901 72.3766 6.77901C73.126 6.77901 73.7684 7.42141 73.7684 9.45567C73.7684 9.56274 73.7684 9.6698 73.7684 9.77687C73.7684 10.0981 73.7684 10.4193 73.6613 10.7405C73.5543 11.3829 73.2331 11.8111 72.5907 11.8111C71.8412 11.8111 71.52 11.3829 70.2352 11.2758L70.0211 10.4193C69.5928 10.6334 69.4858 10.8475 69.3787 11.3829C68.9504 11.4899 68.5222 11.8111 68.5222 12.3465C68.5222 12.6677 68.6292 12.9889 69.0575 13.203C69.807 12.5606 70.5564 12.6677 71.413 12.8818V13.203C70.0211 13.203 70.0211 13.6313 69.0575 13.6313C67.7727 13.6313 67.6656 12.7747 65.8455 12.7747C63.383 12.7747 62.4194 14.9161 60.4922 14.9161C60.4922 15.4514 61.4558 16.415 62.8476 16.415C61.884 16.9503 61.5629 17.4856 61.5629 18.4492C61.5629 19.627 62.4194 20.2694 62.4194 21.233C62.4194 21.9824 61.884 22.7319 60.7063 22.7319C60.8134 23.2672 61.5628 24.0167 62.7406 24.0167C63.9183 24.0167 64.8819 23.4814 65.6314 22.1966C66.4879 22.946 67.0232 24.0167 67.1303 25.6227C69.0575 24.7662 70.2352 23.9096 70.4494 21.34C71.1988 21.9824 72.1624 22.3036 73.2331 22.3036C74.5179 22.3036 75.8027 21.7683 76.7663 20.6976C76.1239 20.2694 75.8027 19.5199 75.8027 18.7704C75.8027 18.128 76.0168 17.2715 77.1945 16.0938L80.4065 13.3101ZM71.9483 4.74475C71.52 4.74475 71.1988 4.53062 71.0918 4.20942C70.8776 4.20942 70.7706 4.10235 70.6635 3.99529C71.7342 3.78116 72.4836 3.88822 72.9119 4.20942C72.6978 4.53062 72.2695 4.74475 71.9483 4.74475Z" fill="#D32939"/>
<path d="M62.5266 9.56257C62.0984 8.70604 63.4902 8.38484 63.4902 7.31418C63.4902 6.45765 63.062 5.92231 62.6337 5.92231C62.4196 5.38698 61.8842 5.17285 61.3489 5.17285C61.1348 5.17285 61.0277 5.27992 60.8136 5.38698C60.5994 5.49405 60.4924 5.70818 60.4924 6.02938H60.2782C60.1712 6.02938 60.0641 6.02938 59.957 6.13645C59.6358 6.35058 59.4217 6.67178 59.5288 7.10005V7.20711V7.74244L58.9934 7.95658C58.9934 7.95658 58.9934 8.06364 58.8864 8.06364C58.7793 8.17071 58.7793 8.38484 58.7793 8.49191C58.7793 9.34844 59.957 9.45551 60.1712 10.312L61.1348 13.9523C62.3125 13.6311 62.7408 12.8816 64.3467 12.3463L62.5266 9.56257Z" fill="#D32939"/>
<path d="M20.8779 50.4597L20.1284 48.3184H20.5567L21.092 49.9244L21.6274 48.3184H22.0556L21.3062 50.4597H20.8779Z" fill="#D32939"/>
<path d="M23.126 50.4597H22.6978V48.3184H23.126V50.4597Z" fill="#D32939"/>
<path d="M25.3747 48.8543C25.2676 48.7472 25.0535 48.6402 24.7323 48.6402C24.304 48.6402 24.0899 48.9614 24.0899 49.2826C24.0899 49.7108 24.4111 50.032 24.7323 50.032C24.8394 50.032 24.9464 50.032 24.9464 50.032V49.3896H25.3747V50.2462C25.1606 50.3532 24.9464 50.3532 24.7323 50.3532C24.0899 50.3532 23.6616 49.925 23.6616 49.2826C23.6616 48.6402 24.0899 48.2119 24.7323 48.2119C24.9464 48.2119 25.1606 48.2119 25.3747 48.319V48.8543V48.8543Z" fill="#D32939"/>
<path d="M26.5523 50.4597H26.124V48.3184H26.5523V50.4597Z" fill="#D32939"/>
<path d="M27.3018 48.3184H27.73V50.0314H28.5866V50.4597H27.3018V48.3184Z" fill="#D32939"/>
<path d="M29.5505 49.9244L29.4434 50.4597H29.0151L29.8717 48.3184H30.407L31.2635 50.4597H30.7282L30.5141 50.0314H29.5505V49.9244ZM29.9787 48.7466L29.6575 49.6032H30.2999L29.9787 48.7466Z" fill="#D32939"/>
<path d="M32.2269 50.4597H31.7987V48.7466H31.1562V48.3184H32.8693V48.7466H32.2269V50.4597Z" fill="#D32939"/>
<path d="M34.7967 50.0314V50.4597H33.4048V48.3184H34.6896V48.7466H33.8331V49.1749H34.6896V49.6032H33.8331V50.0314H34.7967V50.0314Z" fill="#D32939"/>
<path d="M37.1519 48.3184C37.2589 48.3184 37.5801 48.3184 37.7943 48.3184C38.5437 48.3184 38.972 48.7466 38.972 49.389C38.972 50.1385 38.5437 50.4597 37.7943 50.4597C37.5801 50.4597 37.366 50.4597 37.1519 50.4597V48.3184ZM37.5801 50.0314C37.6872 50.0314 37.6872 50.0314 37.7943 50.0314C38.2225 50.0314 38.4367 49.8173 38.4367 49.282C38.4367 48.8537 38.1155 48.6396 37.6872 48.6396C37.5801 48.6396 37.5801 48.6396 37.4731 48.6396V50.0314H37.5801Z" fill="#D32939"/>
<path d="M40.8992 50.0314V50.4597H39.5073V48.3184H40.7921V48.7466H39.9356V49.1749H40.7921V49.6032H39.9356V50.0314H40.8992V50.0314Z" fill="#D32939"/>
<path d="M42.3983 48.3184C43.0407 48.3184 43.469 48.7466 43.469 49.389C43.469 50.0314 43.0407 50.4597 42.3983 50.4597C41.7559 50.4597 41.3277 50.0314 41.3277 49.389C41.2206 48.7466 41.7559 48.3184 42.3983 48.3184ZM42.3983 48.6396C42.0771 48.6396 41.7559 48.8537 41.7559 49.282C41.7559 49.7102 42.0771 49.9244 42.3983 49.9244C42.7195 49.9244 43.0407 49.7102 43.0407 49.282C42.9337 48.9608 42.7195 48.6396 42.3983 48.6396Z" fill="#D32939"/>
<path d="M47.0021 48.8537C46.8951 48.7466 46.6809 48.6396 46.4668 48.6396C46.0385 48.6396 45.8244 48.9608 45.8244 49.282C45.8244 49.7102 46.0385 49.9244 46.4668 49.9244C46.6809 49.9244 46.8951 49.8173 47.0021 49.7102V50.1385C46.788 50.3526 46.5739 50.4597 46.3597 50.4597C45.7173 50.4597 45.2891 50.0314 45.2891 49.389C45.2891 48.7466 45.7173 48.3184 46.3597 48.3184C46.5739 48.3184 46.788 48.3184 46.8951 48.4254V48.8537H47.0021Z" fill="#D32939"/>
<path d="M48.5008 48.3184C49.1432 48.3184 49.5715 48.7466 49.5715 49.389C49.5715 50.0314 49.1432 50.4597 48.5008 50.4597C47.8584 50.4597 47.4302 50.0314 47.4302 49.389C47.4302 48.7466 47.9655 48.3184 48.5008 48.3184ZM48.5008 48.6396C48.1796 48.6396 47.8584 48.8537 47.8584 49.282C47.8584 49.7102 48.1796 49.9244 48.5008 49.9244C48.822 49.9244 49.1432 49.7102 49.1432 49.282C49.1432 48.9608 48.9291 48.6396 48.5008 48.6396Z" fill="#D32939"/>
<path d="M51.6057 49.7102V48.3184H52.034V50.4597H51.6057L50.6421 49.0678V50.4597H50.2139V48.3184H50.6421L51.6057 49.7102Z" fill="#D32939"/>
<path d="M52.6763 50.4597V48.3184H53.854V48.7466H53.2116V49.282H53.854V49.7102H53.2116V50.4597H52.6763Z" fill="#D32939"/>
<path d="M54.9248 50.4597H54.4966V48.3184H54.9248V50.4597Z" fill="#D32939"/>
<path d="M55.6743 48.3184C55.7814 48.3184 56.1026 48.3184 56.3167 48.3184C57.0662 48.3184 57.4944 48.7466 57.4944 49.389C57.4944 50.1385 57.0662 50.4597 56.3167 50.4597C56.1026 50.4597 55.8884 50.4597 55.6743 50.4597V48.3184ZM56.1026 50.0314C56.2096 50.0314 56.2096 50.0314 56.3167 50.0314C56.745 50.0314 56.9591 49.8173 56.9591 49.282C56.9591 48.8537 56.6379 48.6396 56.2096 48.6396C56.1026 48.6396 56.1026 48.6396 55.9955 48.6396V50.0314H56.1026Z" fill="#D32939"/>
<path d="M59.4217 50.0314V50.4597H58.0298V48.3184H59.3146V48.7466H58.5651V49.1749H59.4217V49.6032H58.5651V50.0314H59.4217V50.0314Z" fill="#D32939"/>
<path d="M61.4558 49.7102V48.3184H61.8841V50.4597H61.4558L60.4922 49.0678V50.4597H60.064V48.3184H60.4922L61.4558 49.7102Z" fill="#D32939"/>
<path d="M63.4901 50.4597H63.0618V48.7466H62.4194V48.3184H64.1325V48.7466H63.4901V50.4597Z" fill="#D32939"/>
<path d="M66.0598 50.0314V50.4597H64.668V48.3184H65.9528V48.7466H65.0962V49.1749H65.9528V49.6032H65.0962V50.0314H66.0598V50.0314Z" fill="#D32939"/>
<path d="M66.595 49.8179C66.7021 49.925 66.9162 50.032 67.1303 50.032C67.3445 50.032 67.4515 49.925 67.4515 49.8179C67.4515 49.7108 67.3445 49.6038 67.1303 49.4967C66.7021 49.3896 66.4879 49.1755 66.4879 48.8543C66.4879 48.426 66.8091 48.2119 67.1303 48.2119C67.3445 48.2119 67.5586 48.319 67.6657 48.319V48.7472C67.4515 48.6402 67.3445 48.5331 67.1303 48.5331C66.9162 48.5331 66.8091 48.6402 66.8091 48.7472C66.8091 48.8543 66.9162 48.9614 67.1303 49.0684C67.5586 49.1755 67.6657 49.3896 67.6657 49.7108C67.6657 50.1391 67.3445 50.3532 66.9162 50.3532C66.7021 50.3532 66.4879 50.2462 66.3809 50.2462V49.8179H66.595Z" fill="#D32939"/>
<path d="M55.0319 45.7519L54.9248 45.6448C55.0319 44.6812 55.5672 44.2529 56.1025 44.2529L56.4237 45.5377C55.9955 45.4307 55.3531 45.4307 55.0319 45.7519Z" fill="#281F6B"/>
<path d="M57.066 45.5377C57.6014 45.4307 58.1367 45.4307 58.4579 45.4307C58.2438 45.1095 58.2438 44.8953 58.2438 44.5741C58.2438 44.4671 58.2438 44.36 58.2438 44.2529C57.6014 44.36 57.1731 44.6812 56.959 45.3236L57.066 45.5377Z" fill="#281F6B"/>
<path d="M61.1345 45.7514H60.278L60.1709 45.6443C60.385 45.109 60.8133 45.002 61.0274 45.002C61.1345 45.109 61.2416 45.3231 61.2416 45.4302C61.2416 45.5373 61.2416 45.6443 61.1345 45.7514Z" fill="#281F6B"/>
<path d="M76.8737 47.0363L76.7666 46.9292C76.8737 45.9656 77.409 45.3232 78.0514 45.3232V46.7151C77.8373 46.7151 77.1949 46.7151 76.8737 47.0363Z" fill="#281F6B"/>
<path d="M78.0509 47.6793L77.9438 47.4652C78.158 46.8228 78.5862 46.5016 79.2286 46.3945C79.1216 46.5016 79.1216 46.7157 79.1216 46.8228C79.1216 47.0369 79.2286 47.3581 79.3357 47.4652C79.1216 47.4652 78.5862 47.4652 78.0509 47.6793Z" fill="#281F6B"/>
<path d="M82.0124 47.893H81.1559L81.0488 47.786C81.263 47.2506 81.6912 47.1436 81.9053 47.1436C82.0124 47.2506 82.1195 47.4648 82.1195 47.5718C82.1195 47.6789 82.1195 47.786 82.0124 47.893Z" fill="#281F6B"/>
<path d="M50 41.4693C50.1071 41.1481 50.3212 41.041 50.5353 41.041C50.6424 41.1481 50.6424 41.2551 50.6424 41.2551C50.6424 41.3622 50.6424 41.3622 50.5353 41.4693H50V41.4693Z" fill="#281F6B"/>
<path d="M48.1797 41.2553C48.5009 41.1482 48.8221 41.1482 49.0362 41.1482C48.9292 41.0412 48.9292 40.9341 48.9292 40.72C48.9292 40.6129 48.9292 40.5059 48.9292 40.5059C48.5009 40.6129 48.1797 40.72 48.1797 41.2553Z" fill="#281F6B"/>
<path d="M47.4302 40.9337C47.4302 39.863 47.9655 39.863 48.2867 39.9701L48.1796 40.7195C47.8584 40.7195 47.6443 40.7195 47.4302 40.9337Z" fill="#281F6B"/>
<path d="M37.3662 39.9703C37.4733 39.6491 37.6874 39.542 37.9015 39.542C38.0086 39.6491 38.0086 39.8632 37.9015 39.9703H37.3662Z" fill="#281F6B"/>
<path d="M35.439 39.8627C35.7602 39.7557 36.0813 39.7557 36.2955 39.7557C36.1884 39.6486 36.0814 39.5415 36.0814 39.4345C36.0814 39.3274 36.0813 39.2203 36.1884 39.1133C35.7602 39.1133 35.546 39.3274 35.439 39.8627Z" fill="#281F6B"/>
<path d="M34.1538 39.9704C34.1538 39.221 34.475 39.0068 34.7962 39.0068L35.0104 39.7563C34.7962 39.7563 34.3679 39.7563 34.1538 39.9704Z" fill="#281F6B"/>
<path d="M32.9763 45.7525C32.6551 45.4313 32.0127 45.4313 31.5845 45.4313L31.9057 44.1465C32.441 44.1465 33.0834 44.5748 33.0834 45.5384L32.9763 45.7525Z" fill="#281F6B"/>
<path d="M30.9421 45.5377L31.0492 45.3236C30.8351 44.6812 30.4068 44.36 29.7644 44.2529C29.7644 44.36 29.7644 44.4671 29.7644 44.5741C29.7644 44.8953 29.6574 45.1095 29.5503 45.4307C29.8715 45.4307 30.4068 45.4307 30.9421 45.5377Z" fill="#281F6B"/>
<path d="M26.8737 45.7514C26.7666 45.6443 26.7666 45.5373 26.7666 45.4302C26.7666 45.3231 26.8737 45.109 26.9807 45.002C27.1949 45.002 27.6231 45.2161 27.8373 45.6443L27.7302 45.7514H26.8737V45.7514Z" fill="#281F6B"/>
<path d="M11.1348 47.0363C10.8136 46.7151 10.1712 46.7151 9.95703 46.7151V45.3232C10.5994 45.3232 11.2418 45.8586 11.2418 46.9292L11.1348 47.0363Z" fill="#281F6B"/>
<path d="M9.9568 47.6787C9.42147 47.5717 8.88614 47.5717 8.56494 47.5717C8.67201 47.3575 8.77907 47.1434 8.77907 46.9292C8.77907 46.7151 8.67201 46.608 8.67201 46.501C9.31441 46.608 9.74267 46.9292 9.9568 47.5717V47.6787Z" fill="#281F6B"/>
<path d="M6.10267 47.893C5.9956 47.786 5.99561 47.6789 5.99561 47.5718C5.99561 47.4648 6.10267 47.2506 6.20973 47.1436C6.42387 47.1436 6.85214 47.3577 7.06627 47.786L6.9592 47.893H6.10267V47.893Z" fill="#281F6B"/>
<path d="M57.4944 32.6885C56.959 33.0097 56.5308 33.545 56.5308 34.1874L56.7449 34.2945C57.0661 34.0803 57.4944 33.9733 57.8156 33.8662L57.4944 33.1167C57.4944 32.9026 57.4944 32.7955 57.4944 32.6885Z" fill="#281F6B"/>
<path d="M61.563 35.3648C61.6701 35.5789 61.7771 35.7931 61.7771 35.9001H61.9912C62.2054 35.5789 62.3124 35.2577 62.3124 34.9365L62.0983 35.1507C61.9913 35.2577 61.7771 35.3648 61.563 35.3648Z" fill="#281F6B"/>
<path d="M58.351 30.4404C57.7086 30.5475 57.0662 30.9758 56.8521 31.5111L56.9591 31.6182C57.4945 31.5111 57.9227 31.5111 58.351 31.5111V31.1899C58.2439 30.9758 58.2439 30.6546 58.351 30.4404Z" fill="#281F6B"/>
<path d="M58.9934 35.1512C58.7793 35.0441 58.6722 34.83 58.5651 34.5088C58.2439 35.0441 58.2439 35.6865 58.5651 36.2219H58.7792C58.8863 35.9007 59.1005 35.5795 59.4217 35.3653C59.3146 35.3653 59.3146 35.2583 59.2075 35.2583L58.9934 35.1512Z" fill="#281F6B"/>
<path d="M14.2398 10.5276C15.0963 9.77813 15.9528 9.45693 16.9164 9.45693C18.9507 9.45693 19.5931 10.3135 21.1991 10.3135C22.698 10.3135 23.5545 9.67106 23.5545 8.38627C23.5545 7.42267 23.0192 6.78027 22.0556 6.78027C21.4132 6.78027 20.6637 7.10147 20.6637 7.85094C20.6637 8.38627 21.092 8.81453 21.5203 8.81453C21.8415 8.81453 21.8415 8.6004 22.0556 8.6004C22.1627 8.6004 22.2697 8.70747 22.2697 8.81453C22.2697 9.02867 21.9485 9.45693 21.1991 9.45693C20.0213 9.45693 18.8436 8.49333 17.1306 8.49333C16.0599 8.49333 15.2034 8.70747 14.3468 9.2428C14.3468 9.34986 14.3468 9.45693 14.3468 9.564C14.1327 9.99226 14.1327 10.3135 14.2398 10.5276Z" fill="#281F6B"/>
<path d="M29.4425 6.99316C29.1213 6.99316 28.9071 7.10023 28.5859 7.2073V7.74263L29.1213 7.95676C29.1213 7.95676 29.1213 8.06383 29.2283 8.06383C29.4425 7.74263 29.7637 7.42143 30.0849 7.31436V7.10023C29.8707 6.99316 29.5495 6.99316 29.4425 6.99316Z" fill="#281F6B"/>
<path d="M27.5157 5.92293H27.7298C27.8369 5.92293 27.9439 5.92293 28.051 6.03C28.2651 5.81587 28.5863 5.60174 28.8005 5.49467V5.28054C28.5863 5.17347 28.2651 5.06641 27.9439 5.06641C27.6227 5.06641 27.4086 5.17347 27.0874 5.28054C27.4086 5.3876 27.6227 5.60174 27.5157 5.92293Z" fill="#281F6B"/>
<path d="M36.5096 17.7004C36.6166 17.5933 36.7237 17.5933 36.8308 17.7004C36.6166 17.3792 36.1884 17.165 35.8672 17.165V17.2721C35.9743 17.3792 35.9742 17.3792 36.0813 17.4862C36.1884 17.5933 36.4025 17.5933 36.5096 17.7004Z" fill="#281F6B"/>
<path d="M35.3319 19.6285L35.4389 19.5214L35.2248 19.2002C34.9036 19.3073 34.7965 19.4143 34.6895 19.5214V19.6285C34.7965 19.6285 35.1177 19.6285 35.3319 19.6285Z" fill="#281F6B"/>
<path d="M35.2251 20.5911V20.6982C35.4392 20.8052 35.7604 20.8052 36.2958 20.5911C36.0816 20.484 35.7604 20.484 35.5463 20.377C35.4392 20.484 35.3322 20.5911 35.2251 20.5911Z" fill="#281F6B"/>
<path d="M35.332 18.2353C35.2249 18.1282 35.2249 18.0211 35.332 17.9141C35.0108 17.9141 34.7966 17.9141 34.5825 18.0211V18.1282C34.6896 18.2353 34.9037 18.3423 35.1178 18.3423V18.2353H35.332Z" fill="#281F6B"/>
<path d="M37.2593 32.5823C37.3663 32.7964 37.3663 32.9035 37.3663 33.1176H37.4734C37.6875 32.9035 37.7946 32.5823 37.7946 32.3682L37.2593 32.5823Z" fill="#281F6B"/>
<path d="M35.6531 32.9031H35.7601C35.8672 32.7961 35.9742 32.689 36.0813 32.5819L35.6531 32.2607C35.546 32.4749 35.546 32.689 35.6531 32.9031Z" fill="#281F6B"/>
<path d="M35.1177 30.8691C34.9036 30.9762 34.6895 31.1903 34.6895 31.5115L34.7965 31.6186C34.9036 31.6186 35.1177 31.5115 35.2248 31.5115L35.1177 31.0833C35.1177 30.9762 35.1177 30.9762 35.1177 30.8691Z" fill="#281F6B"/>
<path d="M35.8672 29.6914C35.546 29.6914 35.3318 29.9055 35.1177 30.1197V30.2267C35.2247 30.2267 35.4389 30.2267 35.653 30.3338V30.2267C35.653 30.0126 35.7601 29.7985 35.8672 29.6914Z" fill="#281F6B"/>
<path d="M29.7646 31.2983V31.6195C30.1929 31.6195 30.6212 31.6195 31.1565 31.7266L31.2636 31.6195C31.0494 30.9771 30.407 30.5488 29.7646 30.5488C29.7646 30.6559 29.7646 30.9771 29.7646 31.2983Z" fill="#281F6B"/>
<path d="M25.803 35.0462L25.5889 34.832C25.5889 35.1532 25.6959 35.5815 25.9101 35.7956H26.1242C26.1242 35.5815 26.2313 35.3674 26.3383 35.2603C26.2313 35.3674 26.0171 35.2603 25.803 35.0462Z" fill="#281F6B"/>
<path d="M28.801 35.3667C28.801 35.3667 28.694 35.4737 28.5869 35.4737C28.801 35.7949 29.0152 36.1161 29.2293 36.3303H29.4435C29.7647 35.7949 29.7647 35.0455 29.4435 34.6172C29.3364 34.9384 29.2293 35.1525 29.0152 35.2596L28.801 35.3667Z" fill="#281F6B"/>
<path d="M31.4777 34.1894C31.4777 33.654 31.0494 33.0116 30.5141 32.6904C30.5141 32.7975 30.5141 32.9046 30.5141 33.1187L30.1929 33.8682C30.5141 33.9752 30.9423 34.1894 31.2635 34.2964L31.4777 34.1894Z" fill="#281F6B"/>
<path d="M45.5031 18.1285C44.9678 17.8073 44.4325 17.7002 43.7901 17.7002C42.7194 17.7002 41.9699 18.2355 41.3275 18.2355C40.7922 18.2355 40.6851 18.0214 40.6851 17.8073C40.6851 17.7002 40.7922 17.7002 40.7922 17.7002C40.8993 17.7002 40.8993 17.8073 41.1134 17.8073C41.4346 17.8073 41.6487 17.5931 41.6487 17.1649C41.6487 16.6295 41.2205 16.5225 40.7922 16.5225C40.2569 16.5225 39.8286 16.9507 39.8286 17.4861C39.8286 18.2355 40.471 18.6638 41.2205 18.6638C42.3982 18.6638 42.6123 18.1285 43.7901 18.1285C44.3254 18.1285 44.8607 18.3426 45.289 18.7709C45.3961 18.5567 45.3961 18.4497 45.3961 18.1285C45.5031 18.2355 45.5031 18.1285 45.5031 18.1285Z" fill="#281F6B"/>
<path d="M73.8757 9.2428C73.0191 8.70747 72.1626 8.49333 71.0919 8.49333C69.2718 8.49333 68.0941 9.45693 67.0234 9.45693C66.1669 9.45693 65.9528 9.02867 65.9528 8.81453C65.9528 8.6004 66.0598 8.6004 66.1669 8.6004C66.381 8.6004 66.381 8.81453 66.7022 8.81453C67.1305 8.81453 67.5588 8.38627 67.5588 7.85094C67.5588 6.99441 66.8093 6.78027 66.1669 6.78027C65.2033 6.78027 64.668 7.42267 64.668 8.38627C64.668 9.564 65.5245 10.3135 67.0234 10.3135C68.6294 10.3135 69.2718 9.45693 71.3061 9.45693C72.2697 9.45693 73.0191 9.77813 73.9827 10.5276C73.9827 10.2064 74.0898 9.8852 74.0898 9.564C73.8757 9.45693 73.8757 9.34986 73.8757 9.2428Z" fill="#281F6B"/>
<path d="M60.4925 5.92293C60.4925 5.60174 60.5995 5.3876 60.8136 5.28054C60.5995 5.17347 60.2783 5.06641 59.9571 5.06641C59.6359 5.06641 59.4218 5.06641 59.1006 5.28054V5.49467C59.3147 5.60174 59.6359 5.81587 59.85 6.03C59.9571 5.92293 60.0642 5.92293 60.1712 5.92293H60.4925Z" fill="#281F6B"/>
<path d="M59.4217 7.74263V7.2073C59.2075 7.10023 58.8863 6.99316 58.5651 6.99316C58.351 6.99316 58.1369 6.99316 58.0298 7.10023V7.31436C58.351 7.5285 58.6722 7.84969 58.8863 8.06383C58.8863 8.06383 58.8863 7.95676 58.9934 7.95676L59.4217 7.74263Z" fill="#281F6B"/>
</svg>
